<?xml version="1.0" encoding="utf-8"?>
<!-- Generator: Adobe Illustrator 25.0.1, SVG Export Plug-In . SVG Version: 6.00 Build 0)  -->
<svg version="1.1" id="Layer_1" xmlns="http://www.w3.org/2000/svg" xmlns:xlink="http://www.w3.org/1999/xlink" x="0px" y="0px"
	 viewBox="0 0 426 426" style="enable-background:new 0 0 426 426;" xml:space="preserve">
<style type="text/css">
	.st0{fill:#1DA1D4;}
</style>
<g>
	<path class="st0" d="M400.3,97c-13.8,6.1-28.5,10.2-44.1,12.1c15.8-9.5,28-24.5,33.7-42.5c-14.8,8.8-31.2,15.2-48.7,18.6
		c-14-14.9-33.9-24.2-56-24.2c-42.4,0-76.7,34.4-76.7,76.8c0,6,0.7,11.8,2,17.5C146.7,152,90.2,121.4,52.3,75
		C45.7,86.4,42,99.6,42,113.6c0,26.6,13.6,50.1,34.1,63.9c-12.6-0.4-24.4-3.9-34.8-9.6v1c0,37.2,26.4,68.2,61.6,75.2
		c-6.5,1.7-13.2,2.7-20.2,2.7c-4.9,0-9.8-0.5-14.4-1.4c9.8,30.5,38.1,52.7,71.7,53.3c-26.3,20.6-59.4,32.9-95.3,32.9
		c-6.2,0-12.3-0.4-18.3-1.1c34,21.8,74.3,34.5,117.6,34.5c141.2,0,218.3-116.9,218.3-218.3c0-3.3-0.1-6.6-0.2-9.9
		C377,125.9,390,112.4,400.3,97L400.3,97z"/>
</g>
</svg>
