<?xml version="1.0" encoding="utf-8"?>
<!-- Generator: Adobe Illustrator 15.1.0, SVG Export Plug-In . SVG Version: 6.00 Build 0)  -->
<!DOCTYPE svg PUBLIC "-//W3C//DTD SVG 1.1//EN" "http://www.w3.org/Graphics/SVG/1.1/DTD/svg11.dtd">
<svg version="1.1" id="Layer_1" xmlns="http://www.w3.org/2000/svg" xmlns:xlink="http://www.w3.org/1999/xlink" x="0px" y="0px"
	 width="600px" height="400px" viewBox="0 0 600 400" enable-background="new 0 0 600 400" xml:space="preserve">
<g>
	<path fill-rule="evenodd" clip-rule="evenodd" d="M122,1c112.669,0,225.334,0,338,0C347.451,42.461,235.155,84.151,121,124
		c0-40.001,0-80,0-120C120.914,2.581,120.834,1.168,122,1z"/>
	<path fill-rule="evenodd" clip-rule="evenodd" d="M518,129c16.737,11.569,24.041,32.34,37,54c10.455,17.475,19.563,40.074,45,40
		c-7.872,7.67-20.318,9.061-31,13c-10.778,3.974-21.274,8.994-32,12c-7.183-14.627-16.349-31.153-27-51
		c-9.428-17.564-21.493-50.79-49-39c0,23.333,0,46.666,0,70c-16.492,4.203-33.133,13.495-48,16c0-59.002,0-117.999,0-177
		c29.829-12.288,62.299-22.801,91-34c1.134-0.443,2.018-0.847,3-1c34.089-5.337,60.201,5.792,61,31
		C569.034,95.688,540.271,115.506,518,129z M501,126c24.797-25.847,11.809-77.385-29-69c-14.807,3.042-11,26.801-11,46
		c-0.001,15.975-0.797,30.808,1,43C477.229,138.572,490.346,137.105,501,126z"/>
	<path fill-rule="evenodd" clip-rule="evenodd" d="M277,225c0,23.333,0,46.666,0,70c-16.032,5.302-31.812,10.854-47,17
		c-2.333-57.669-0.333-119.667-1-179c31.12-11.192,62.063-21.709,91-33c25.438-9.926,57.72,7.449,62,22
		c7.773,26.43-10.609,53.596-27,67C331.162,208.492,300.392,215.494,277,225z M328,150c-2.919-20.247-30.318-34.79-50-20
		c-2.27,25.73-0.38,55.619-1,83C304.871,208.57,332.928,184.186,328,150z"/>
	<path fill-rule="evenodd" clip-rule="evenodd" d="M53,149c0.85-0.184,0.943,0.39,1,1c3.357,45.203-4.408,107.091,0,154
		c0.938,9.984,4.017,19.416,9,26c7.296,9.64,44.967,26.224,56,7c4.51-7.859,2-26.188,2-40c0-42.233,0-83.28,0-124
		c14.809-6.858,32.299-11.034,47-18c2.333,57.667,0.333,119.666,1,179c-25.187,9.157-49.282,17.725-75,27
		c-8.022,2.893-16.309,7.955-24,9c-27.65,3.755-51.502-7.002-60-23c-19.791-37.256,0.442-130.696-7-180
		C20.255,161.588,36.635,155.301,53,149z"/>
	<path fill-rule="evenodd" clip-rule="evenodd" d="M461,399c-112.672,0-225.332,0-338,0c111.959-41.718,224.474-82.848,338-123
		C461,317,461,357.999,461,399z"/>
</g>
</svg>
