<?xml version="1.0" encoding="UTF-8"?>
<svg xmlns="http://www.w3.org/2000/svg" xmlns:xlink="http://www.w3.org/1999/xlink" width="100.49pt" height="100.49pt" viewBox="0 0 100.49 100.49" version="1.1">
<defs>
<clipPath id="clip1">
  <path d="M 0 0 L 100.488281 0 L 100.488281 100.488281 L 0 100.488281 Z M 0 0 "/>
</clipPath>
</defs>
<g id="surface1">
<g clip-path="url(#clip1)" clip-rule="nonzero">
<path style=" stroke:none;fill-rule:evenodd;fill:rgb(72.898865%,12.199402%,14.498901%);fill-opacity:1;" d="M 14.132813 78.3125 C 18.644531 78.3125 23.160156 78.3125 27.671875 78.3125 C 29.476563 69.652344 30.964844 60.671875 32.777344 52.015625 C 42.996094 52.160156 52.699219 51.789063 62.804688 51.816406 C 54.378906 60.597656 45.441406 68.867188 37.289063 77.921875 C 38.910156 80.417969 40.640625 82.8125 42.195313 85.378906 C 47.644531 81.433594 55.871094 85.511719 63.394531 85.378906 C 69.167969 85.277344 73.671875 84.070313 78.308594 82.238281 C 78.464844 78.730469 78.722656 75.328125 79.09375 72.03125 C 73.738281 75.105469 64.480469 74.691406 56.328125 74.386719 C 62.453125 68.027344 69.734375 60.980469 76.34375 54.367188 C 77.976563 52.738281 82.570313 49.449219 83.019531 47.5 C 83.417969 45.761719 82.390625 42.625 82.625 41.023438 C 66.914063 41.035156 51.179688 41.066406 35.914063 40.628906 C 36.617188 36.6875 37.117188 32.542969 38.074219 28.855469 C 47.953125 28.855469 57.832031 28.855469 67.710938 28.855469 C 68.3125 24.878906 68.867188 20.855469 69.28125 16.6875 C 55.207031 16.828125 41.621094 16.476563 27.671875 16.488281 C 22.84375 36.78125 18.675781 57.734375 14.132813 78.3125 Z M 10.597656 0.00390625 C 10.859375 5.824219 20.703125 5.753906 21 0.00390625 C 23.09375 0.00390625 25.1875 0.00390625 27.28125 0.00390625 C 27.601563 5.691406 37.417969 5.882813 37.683594 0.00390625 C 39.839844 0.00390625 42 0.00390625 44.160156 0.00390625 C 45 5.714844 55.324219 5.855469 56.132813 0.00390625 C 58.355469 0.00390625 60.582031 0.00390625 62.804688 0.00390625 C 63.082031 5.734375 72.972656 5.855469 73.207031 0.00390625 C 75.300781 0.00390625 77.394531 0.00390625 79.484375 0.00390625 C 79.78125 5.753906 89.628906 5.824219 89.886719 0.00390625 C 93.421875 0.00390625 96.953125 0.00390625 100.484375 0.00390625 C 100.484375 3.535156 100.484375 7.070313 100.484375 10.601563 C 94.667969 10.84375 94.71875 20.738281 100.484375 21.003906 C 100.484375 23.097656 100.484375 25.191406 100.484375 27.285156 C 94.8125 27.59375 94.589844 37.441406 100.484375 37.6875 C 100.484375 39.84375 100.484375 42.003906 100.484375 44.164063 C 94.585938 45.074219 94.847656 55.335938 100.484375 56.332031 C 100.484375 58.492188 100.484375 60.648438 100.484375 62.808594 C 94.714844 63 94.613281 73.046875 100.484375 73.210938 C 100.484375 75.304688 100.484375 77.398438 100.484375 79.492188 C 94.679688 79.710938 94.667969 89.683594 100.484375 89.890625 C 100.484375 93.425781 100.484375 96.957031 100.484375 100.488281 C 96.953125 100.488281 93.421875 100.488281 89.886719 100.488281 C 89.679688 94.671875 79.707031 94.683594 79.484375 100.488281 C 77.394531 100.488281 75.300781 100.488281 73.207031 100.488281 C 73.054688 94.613281 62.984375 94.722656 62.804688 100.488281 C 60.644531 100.488281 58.484375 100.488281 56.328125 100.488281 C 55.367188 94.820313 45.058594 94.597656 44.160156 100.488281 C 42 100.488281 39.839844 100.488281 37.683594 100.488281 C 37.492188 94.570313 27.519531 94.78125 27.28125 100.488281 C 25.1875 100.488281 23.09375 100.488281 21 100.488281 C 20.78125 94.683594 10.808594 94.671875 10.597656 100.488281 C 7.066406 100.488281 3.53125 100.488281 0 100.488281 C 0 96.957031 0 93.425781 0 89.890625 C 5.820313 89.683594 5.804688 79.710938 0 79.492188 C 0 77.398438 0 75.304688 0 73.210938 C 5.871094 73.046875 5.769531 63 0 62.808594 C 0 60.648438 0 58.492188 0 56.332031 C 5.640625 55.335938 5.902344 45.074219 0 44.164063 C 0 42.003906 0 39.84375 0 37.6875 C 5.898438 37.441406 5.671875 27.59375 0 27.285156 C 0 25.191406 0 23.097656 0 21.003906 C 5.769531 20.738281 5.816406 10.84375 0 10.601563 C 0 7.070313 0 3.535156 0 0.00390625 C 3.53125 0.00390625 7.066406 0.00390625 10.597656 0.00390625 "/>
</g>
<path style=" stroke:none;fill-rule:evenodd;fill:rgb(100%,100%,100%);fill-opacity:1;" d="M 27.671875 16.488281 C 41.621094 16.476563 55.207031 16.828125 69.28125 16.6875 C 68.867188 20.855469 68.3125 24.878906 67.710938 28.855469 C 57.832031 28.855469 47.953125 28.855469 38.074219 28.855469 C 37.117188 32.542969 36.617188 36.6875 35.914063 40.628906 C 51.179688 41.066406 66.914063 41.035156 82.625 41.023438 C 82.390625 42.625 83.417969 45.761719 83.019531 47.5 C 82.570313 49.449219 77.976563 52.738281 76.34375 54.367188 C 69.734375 60.980469 62.453125 68.027344 56.328125 74.386719 C 64.480469 74.691406 73.738281 75.105469 79.09375 72.03125 C 78.722656 75.328125 78.464844 78.730469 78.308594 82.238281 C 73.671875 84.070313 69.167969 85.277344 63.394531 85.378906 C 55.871094 85.511719 47.644531 81.433594 42.195313 85.378906 C 40.640625 82.8125 38.910156 80.417969 37.289063 77.921875 C 45.441406 68.867188 54.378906 60.597656 62.804688 51.816406 C 52.699219 51.789063 42.996094 52.160156 32.777344 52.015625 C 30.964844 60.671875 29.476563 69.652344 27.671875 78.3125 C 23.160156 78.3125 18.644531 78.3125 14.132813 78.3125 C 18.675781 57.734375 22.84375 36.78125 27.671875 16.488281 "/>
</g>
</svg>
